HIERARCHY
ROOT SpineBase
{
  OFFSET 0.000000 0.000000 0.000000
  CHANNELS 6 Xposition Yposition Zposition Zrotation Xrotation Yrotation
  JOINT SpineMid
  {
    OFFSET -0.000000 26.246365 0.000000
    CHANNELS 3 Zrotation Xrotation Yrotation
    JOINT SpineShoulder
    {
      OFFSET -0.047766 19.560502 -0.648229
      CHANNELS 3 Zrotation Xrotation Yrotation
      JOINT Neck
      {
        OFFSET -0.031527 6.502504 -0.478583
        CHANNELS 3 Zrotation Xrotation Yrotation
        JOINT Head
        {
          OFFSET -2.487458 11.810460 0.565256
          CHANNELS 3 Zrotation Xrotation Yrotation
          End Site
          {
            OFFSET 0 0 0
          }
        }
      }
      JOINT ShoulderLeft
      {
        OFFSET -12.464123 -3.540968 6.119686
        CHANNELS 3 Zrotation Xrotation Yrotation
        JOINT ElbowLeft
        {
          OFFSET -1.794650 -25.209508 2.926136
          CHANNELS 3 Zrotation Xrotation Yrotation
          JOINT WristLeft
          {
            OFFSET -4.010145 -17.235224 -6.403620
            CHANNELS 3 Zrotation Xrotation Yrotation
            JOINT HandLeft
            {
              OFFSET -1.140759 -6.813862 -3.163930
              CHANNELS 3 Zrotation Xrotation Yrotation
              JOINT HandTipLeft
              {
                OFFSET -0.442103 -4.576524 -2.086705
                CHANNELS 3 Zrotation Xrotation Yrotation
                End Site
                {
                  OFFSET 0 0 0
                }
              }
              JOINT ThumbLeft
              {
                OFFSET 1.710392 -1.330061 -2.248786
                CHANNELS 3 Zrotation Xrotation Yrotation
                End Site
                {
                  OFFSET 0 0 0
                }
              }
            }
          }
        }
      }
      JOINT ShoulderRight
      {
        OFFSET 11.750577 -2.249507 -5.173227
        CHANNELS 3 Zrotation Xrotation Yrotation
        JOINT ElbowRight
        {
          OFFSET 4.807993 -22.429796 -2.261674
          CHANNELS 3 Zrotation Xrotation Yrotation
          JOINT WristRight
          {
            OFFSET -0.085124 -20.057093 -7.900379
            CHANNELS 3 Zrotation Xrotation Yrotation
            JOINT HandRight
            {
              OFFSET -1.282814 -6.658474 -1.618526
              CHANNELS 3 Zrotation Xrotation Yrotation
              JOINT HandTipRight
              {
                OFFSET -0.017138 -5.763608 -2.719462
                CHANNELS 3 Zrotation Xrotation Yrotation
                End Site
                {
                  OFFSET 0 0 0
                }
              }
              JOINT ThumbRight
              {
                OFFSET -2.773525 1.951915 0.602885
                CHANNELS 3 Zrotation Xrotation Yrotation
                End Site
                {
                  OFFSET 0 0 0
                }
              }
            }
          }
        }
      }
    }
  }
  JOINT HipLeft
  {
    OFFSET -5.467702 0.271124 -1.196002
    CHANNELS 3 Zrotation Xrotation Yrotation
    JOINT KneeLeft
    {
      OFFSET 4.133806 -33.458026 3.444982
      CHANNELS 3 Zrotation Xrotation Yrotation
      JOINT AnkleLeft
      {
        OFFSET 6.624900 -32.536568 6.040005
        CHANNELS 3 Zrotation Xrotation Yrotation
        JOINT FootLeft
        {
          OFFSET -3.587153 -2.954743 -9.956482
          CHANNELS 3 Zrotation Xrotation Yrotation
          End Site
          {
            OFFSET 0 0 0
          }
        }
      }
    }
  }
  JOINT HipRight
  {
    OFFSET 4.961677 1.241037 -4.807858
    CHANNELS 3 Zrotation Xrotation Yrotation
    JOINT KneeRight
    {
      OFFSET 5.730037 -31.199894 -0.474672
      CHANNELS 3 Zrotation Xrotation Yrotation
      JOINT AnkleRight
      {
        OFFSET 4.777693 -32.021815 5.480497
        CHANNELS 3 Zrotation Xrotation Yrotation
        JOINT FootRight
        {
          OFFSET -4.372767 -6.142242 1.670362
          CHANNELS 3 Zrotation Xrotation Yrotation
          End Site
          {
            OFFSET 0 0 0
          }
        }
      }
    }
  }
}
MOTION
Frames: 14
Frame Time: 0.033333
30.668875 71.141337 365.208712 0.000000 0.000000 19.101763 -0.000000 0.000000 -19.101763 -0.000000 0.000000 0.000000 -0.000000 0.000000 0.000000 0.000000 0.000000 0.000000 -0.000000 0.000000 0.000000 -0.000000 0.000000 0.000000 -0.000000 0.000000 0.000000 -0.000000 0.000000 0.000000 0.000000 0.000000 0.000000 0.000000 0.000000 0.000000 -0.000000 0.000000 0.000000 -0.000000 0.000000 0.000000 -0.000000 0.000000 0.000000 -0.000000 0.000000 0.000000 0.000000 0.000000 0.000000 0.000000 0.000000 0.000000 -0.000000 0.000000 -19.101763 -0.000000 0.000000 0.000000 -0.000000 0.000000 0.000000 0.000000 0.000000 0.000000 -0.000000 0.000000 -19.101763 -0.000000 0.000000 0.000000 -0.000000 0.000000 0.000000 0.000000 0.000000 0.000000
30.632709 71.125662 365.229028 -0.084208 0.078503 19.510268 0.053155 -0.102119 -19.510162 -0.000000 0.000000 0.000000 -0.000000 0.000000 0.000000 0.000000 0.000000 0.000000 -1.670588 2.722073 -0.348647 0.639520 0.925402 -0.049537 -1.418314 6.385569 0.002555 2.618695 -3.445066 0.075664 0.000000 0.000000 0.000000 0.000000 0.000000 0.000000 -1.518535 1.675559 0.535257 -2.575534 2.142864 1.109065 -4.389201 6.315469 -1.098622 2.600589 -9.834613 2.377488 0.000000 0.000000 0.000000 0.000000 0.000000 0.000000 0.053155 -0.102119 -19.510162 -0.000000 0.000000 0.000000 0.590196 -3.026549 1.881054 0.000000 0.000000 0.000000 0.053155 -0.102119 -19.510162 -0.000000 0.000000 0.000000 -0.326075 3.145491 -2.331981 0.000000 0.000000 0.000000
30.606984 71.111115 365.245116 -0.140397 0.165896 19.887622 0.075591 -0.203762 -19.887284 -0.000000 0.000000 0.000000 -0.000000 0.000000 0.000000 0.000000 0.000000 0.000000 -3.217549 5.322166 -0.605187 1.314853 1.588595 -0.045856 -2.669439 11.628477 0.171548 4.859994 -7.015717 0.585291 0.000000 0.000000 0.000000 0.000000 0.000000 0.000000 -2.949047 3.283367 1.088804 -4.781746 3.795783 2.084511 -7.026605 10.871245 -1.734086 3.411892 -17.279158 3.957221 0.000000 0.000000 0.000000 0.000000 0.000000 0.000000 0.075591 -0.203762 -19.887284 0.832775 0.364321 0.225929 0.786364 -6.877154 2.885941 0.000000 0.000000 0.000000 0.075591 -0.203762 -19.887284 -0.774328 -0.362060 -0.189082 0.475675 5.970831 -3.916123 0.000000 0.000000 0.000000
30.591701 71.097697 365.256974 -0.168605 0.262209 20.234417 0.067513 -0.304341 -20.233852 -0.000000 0.000000 0.000000 -0.000000 0.000000 0.000000 0.000000 0.000000 0.000000 -4.606157 7.732460 -0.778654 1.987936 2.036667 -0.007579 -3.616106 15.225866 0.421127 6.587274 -9.690765 1.203330 0.000000 0.000000 0.000000 0.000000 0.000000 0.000000 -4.260536 4.796038 1.643024 -6.620756 5.005172 2.890941 -8.277046 13.784168 -2.234953 2.808297 -22.469428 4.742076 0.000000 0.000000 0.000000 0.000000 0.000000 0.000000 0.067513 -0.304341 -20.233852 1.095228 0.457024 0.291658 2.041223 -10.947484 3.220135 0.000000 0.000000 0.000000 1.049651 -0.397186 -20.196023 -1.970833 -0.726589 -0.287678 1.064621 7.771564 -5.029244 0.000000 0.000000 0.000000
30.586859 71.085406 365.264604 -0.168849 0.367480 20.551201 0.029104 -0.403366 -20.550557 -0.235439 0.830393 -0.011602 0.235632 -0.830338 0.015016 0.000000 0.000000 0.000000 -5.555986 9.062949 -0.953014 2.622576 2.324859 0.044589 -4.201898 17.117270 0.664956 7.751713 -11.081404 1.690996 0.000000 0.000000 0.000000 0.000000 0.000000 0.000000 -5.180925 5.360818 2.114696 -8.123747 5.836250 3.518635 -8.598750 15.459264 -2.720518 1.384884 -25.806735 4.964380 0.000000 0.000000 0.000000 0.000000 0.000000 0.000000 0.029104 -0.403366 -20.550557 1.258081 0.490888 0.327646 3.855749 -15.474105 2.548089 0.000000 0.000000 0.000000 1.152709 -0.508021 -20.503829 -2.253950 -0.839352 -0.332904 1.824611 8.709634 -5.537057 0.000000 0.000000 0.000000
30.592458 71.074244 365.268005 -0.141123 0.481751 20.838472 0.160450 0.404422 -20.840121 -0.027616 0.138832 -0.004644 0.162781 -1.055609 0.008356 0.000000 0.000000 0.000000 -6.591594 10.693322 -1.054247 3.187009 2.508762 0.089526 -4.424048 17.444678 0.854371 8.361832 -11.120976 1.919056 0.000000 0.000000 0.000000 0.000000 0.000000 0.000000 -6.232318 6.390834 2.565095 -9.335643 6.355692 3.975129 -8.348711 16.255428 -3.205584 -0.324240 -27.662156 4.916944 0.000000 0.000000 0.000000 0.000000 0.000000 0.000000 -0.039483 -0.500440 -20.838051 1.322687 0.466255 0.334571 6.121266 -20.440143 0.644876 0.000000 0.000000 0.000000 1.133659 -0.604178 -20.785246 -2.353317 -0.889571 -0.351651 2.724021 8.779764 -5.419745 0.000000 0.000000 0.000000
30.631902 71.065138 365.267937 -0.041114 0.632252 21.124620 0.250767 0.493554 -21.121582 0.034780 0.163851 0.007100 -0.049950 -1.346856 -0.010784 0.000000 0.000000 0.000000 -7.605866 12.051110 -1.149081 3.854224 2.671000 0.079173 -4.527557 16.039513 1.085989 8.316284 -8.915595 1.718286 0.000000 0.000000 0.000000 0.000000 0.000000 0.000000 -6.991217 7.190377 2.894900 -10.998946 6.797723 4.486147 -7.516462 16.778803 -3.757805 -2.989293 -30.926432 4.138370 0.000000 0.000000 0.000000 0.000000 0.000000 0.000000 -0.189518 -0.604580 -21.125393 1.173908 0.266109 0.268941 10.631788 -30.346878 -6.226110 0.000000 0.000000 0.000000 1.006370 -0.552150 -21.042019 -2.250389 -1.184820 -0.395582 4.853192 8.101596 -4.414547 0.000000 0.000000 0.000000
30.673017 71.060338 365.257628 0.060502 0.778486 21.315395 0.342475 0.566644 -21.307825 0.072425 0.179060 0.017206 -0.246755 -1.609812 -0.029403 0.000000 0.000000 0.000000 -8.200082 12.867193 -1.217652 4.105789 3.272448 -0.026067 -4.120153 12.209786 1.347774 7.397061 -5.126361 1.145416 0.000000 0.000000 0.000000 0.000000 0.000000 0.000000 -7.879650 8.136379 3.291684 -11.705902 6.698204 4.556195 -6.828989 16.659413 -4.180372 -4.325888 -30.166372 4.281403 0.000000 0.000000 0.000000 0.000000 0.000000 0.000000 -0.339363 -0.703235 -21.317888 0.836768 -0.047864 0.145714 9.863392 -26.608220 -10.782370 0.000000 0.000000 0.000000 0.776846 -0.477608 -21.208009 -2.035923 -1.313572 -0.410479 5.995010 6.573669 -2.992784 0.000000 0.000000 0.000000
30.753382 71.054770 365.237264 0.222924 0.928943 21.486957 0.401739 0.621928 -21.474899 0.094621 0.193891 0.027434 -1.327219 -2.342623 -0.145368 0.000000 0.000000 0.000000 -8.601811 13.363658 -1.278458 4.553026 2.939842 -0.058646 -3.698903 9.323968 1.449883 6.767310 -0.623457 0.505608 0.000000 0.000000 0.000000 0.000000 0.000000 0.000000 -8.511598 8.687615 3.530880 -11.990980 6.518443 4.498903 -6.324436 15.302277 -4.505540 -2.539527 -27.128357 5.157146 0.000000 0.000000 0.000000 0.000000 0.000000 0.000000 -0.547735 -0.782708 -21.492505 -0.000000 0.000000 0.000000 13.852247 -36.195583 -12.447110 0.000000 0.000000 0.000000 0.357747 -0.475788 -21.380434 -1.755557 -1.186846 -0.382891 6.602820 4.604306 -1.396804 0.000000 0.000000 0.000000
30.779385 71.040411 365.234101 0.314425 1.032118 21.654870 0.479671 0.646839 -21.638966 0.117744 0.171712 0.035914 -1.738679 -2.667863 -0.205060 0.000000 0.000000 0.000000 -8.692447 13.402159 -1.314406 4.854937 2.688090 -0.138282 -3.160015 5.347231 1.645441 5.643115 3.850292 -0.151172 0.000000 0.000000 0.000000 0.000000 0.000000 0.000000 -8.890124 9.000227 3.656658 -12.055589 6.010891 4.352754 -3.992229 14.263538 -5.050422 -5.275834 -25.530238 5.340682 0.000000 0.000000 0.000000 0.000000 0.000000 0.000000 -0.673161 -0.843212 -21.662656 -0.000000 0.000000 0.000000 14.709501 -40.993301 -18.321771 0.000000 0.000000 0.000000 -0.673161 -0.843212 -21.662656 -0.829216 -0.333206 -0.194161 7.341557 -2.741595 4.442650 0.000000 0.000000 0.000000
30.725679 71.022659 365.252836 0.286290 1.062030 21.785006 0.597463 0.654847 -21.765806 0.155559 0.110149 0.042645 -2.061035 -2.821465 -0.244620 0.000000 0.000000 0.000000 -8.539840 13.164832 -1.322789 4.986039 1.761031 -0.087882 -2.013031 2.195924 1.583881 5.061876 7.951337 -0.903910 0.000000 0.000000 0.000000 0.000000 0.000000 0.000000 -9.143173 9.026087 3.679846 -10.847809 5.058053 3.820939 -2.616840 12.329452 -5.178820 -7.928690 -20.463571 6.353328 0.000000 0.000000 0.000000 0.000000 0.000000 0.000000 -0.660054 -0.879900 -21.792728 -0.000000 0.000000 0.000000 13.090708 -35.691014 -20.811907 0.000000 0.000000 0.000000 -0.660054 -0.879900 -21.792728 -0.000000 0.000000 0.000000 5.207717 1.451683 0.329441 0.000000 0.000000 0.000000
30.596141 70.999437 365.298303 0.152653 1.012467 21.782782 0.702512 0.648187 -21.762317 0.195930 0.019218 0.045013 -2.147935 -2.634673 -0.223296 0.000000 0.000000 0.000000 -8.018140 12.570336 -1.291902 4.875326 0.587656 -0.000722 -0.005987 -2.034941 1.445949 5.544068 10.889826 -2.245976 0.000000 0.000000 0.000000 0.000000 0.000000 0.000000 -9.162533 8.865125 3.620835 -9.048412 3.894847 3.144954 -1.337559 9.294824 -5.088023 -10.847341 -17.470404 6.811891 0.000000 0.000000 0.000000 0.000000 0.000000 0.000000 -0.517516 -0.883509 -21.788121 -0.000000 0.000000 0.000000 10.025077 -22.354267 -19.114317 0.000000 0.000000 0.000000 -0.517516 -0.883509 -21.788121 -0.000000 0.000000 0.000000 4.389189 7.187047 -4.397901 0.000000 0.000000 0.000000
30.443211 70.976282 365.352246 -0.031717 0.972323 21.773738 0.782150 0.682112 -21.754575 0.234390 -0.045227 0.043674 -2.057249 -2.681757 -0.234393 0.000000 0.000000 0.000000 -7.123451 11.306409 -1.238621 4.768971 -1.487185 0.222285 1.020309 -4.245723 1.230473 6.779479 13.106541 -3.905160 0.000000 0.000000 0.000000 0.000000 0.000000 0.000000 -9.022137 8.317734 3.455410 -6.309646 2.442867 2.238198 -0.628581 6.464963 -4.582001 -12.639401 -12.666822 7.650239 0.000000 0.000000 0.000000 0.000000 0.000000 0.000000 -0.331249 -0.914714 -21.776113 -0.000000 0.000000 0.000000 8.397812 -18.118794 -12.861506 0.000000 0.000000 0.000000 -0.331249 -0.914714 -21.776113 -0.000000 0.000000 0.000000 4.297408 13.867799 -9.840337 0.000000 0.000000 0.000000
30.261528 70.959612 365.380532 -0.226790 0.860527 21.879742 0.754977 0.556573 -21.863536 0.242157 -0.148748 0.036082 -1.569946 -2.213837 -0.184187 0.000000 0.000000 0.000000 -5.800233 10.186766 -1.110322 3.809561 -3.172819 0.441250 3.962163 -7.744380 0.665448 1.041591 13.177486 -2.018031 0.000000 0.000000 0.000000 0.000000 0.000000 0.000000 -8.518427 7.749166 3.206567 -3.455993 1.254686 1.363415 1.615443 2.805788 -4.078852 -14.325032 -7.430495 8.159228 0.000000 0.000000 0.000000 0.000000 0.000000 0.000000 -0.110229 -0.883055 -21.878888 -0.000000 0.000000 0.000000 5.952238 -11.341830 -9.391584 0.000000 0.000000 0.000000 -0.285561 -2.014017 -22.091951 -0.262927 1.113855 0.211186 5.180058 20.822845 -15.733685 0.000000 0.000000 0.000000
